<?xml version="1.0" encoding="utf-8"?>
<!-- Generator: Adobe Illustrator 23.0.4, SVG Export Plug-In . SVG Version: 6.00 Build 0)  -->
<svg version="1.2" baseProfile="tiny" id="Layer_1" xmlns="http://www.w3.org/2000/svg" xmlns:xlink="http://www.w3.org/1999/xlink"
	 x="0px" y="0px" viewBox="0 0 57.0299988 57.0299988" xml:space="preserve">
<g id="Group_1569" transform="translate(-306 -302.387)">
	<g id="Group_1568" transform="translate(306 328.998)">
		<path id="Path_960" fill="#FFCC43" d="M45.9018021,17.4335842h-2.5102806
			c-1.6175385,0.0053673-3.0976906-0.9085293-3.8175507-2.3570766l-1.9092255-3.8193731
			c-0.7201843-1.4482422-2.2001343-2.3620005-3.8175468-2.3570757H3.1436255
			C2.3578029,8.9198122,1.7047458,8.2988167,1.6849817,7.5129862C1.6652186,6.7271557,2.2862329,6.0740952,3.0720556,6.0543413
			c0.0238526-0.0006084,0.0477173-0.0006084,0.0715699,0h30.7035694c2.6972008-0.008853,5.1649055,1.5162735,6.3631859,3.9326944
			l1.9092293,3.8175468c0.238472,0.4828024,0.7307129,0.7879887,1.2691917,0.7869091h2.5102806
			c0.7860718,0,1.4233093-0.6372347,1.4233093-1.423315l0,0V7.4767709c0.0198402-0.7858305,0.6729546-1.4067702,1.4587746-1.3869338
			c0.7579155,0.019145,1.3677979,0.6290188,1.3869362,1.3869338v5.6914334
			c0.0000038,2.3577137-1.911293,4.2690325-4.2690048,4.2690325c-0.0000076,0-0.0000114,0-0.0000153,0L45.9018021,17.4335842z"/>
		<path id="Path_964" fill="#FFAA15" d="M53.0156174,3.2050557h-8.5371246L41.6327782-2.486378h14.2330933L53.0156174,3.2050557z"/>
		<path id="Path_965" fill="#FFAA15" d="M44.4784927,1.7817408h8.5371246v7.1147208h-8.5371246V1.7817408z"/>
		<path id="Path_980" fill="#353E46" d="M2.5035899,21.7026157h42.7672386v8.5371227H2.5035899V21.7026157z"/>
		<path id="Path_981" fill="#FFD043" d="M2.5035899,21.7026157h42.7672386v4.2690315H2.5035899V21.7026157z"/>
		<path id="Path_982" fill="#FFD043" d="M21.0011559,23.1250191H9.6183167V6.0507727
			c-0.0006781-3.1432946,2.5469084-5.6919594,5.6901922-5.6926513c3.1432848-0.000664,5.6919699,2.5469222,5.692647,5.6901889
			c0,0.0008297,0,0.0016322,0,0.0024624V23.1250191z"/>
		<circle id="Ellipse_500" fill="#353E46" cx="14.6606369" cy="5.5485144" r="1.2347425"/>
		<path id="Path_983" fill="#FFD243" d="M29.9272099,13.165493h4.3515186v11.3828392h-4.3515186V13.165493z"/>
	</g>
	<g id="Group_1567" transform="translate(315.702 302.387)">
		<path id="Path_958" fill="#FFD243" d="M26.644598,0H4.6413398C2.5279591,0,0.814725,1.7132324,0.814725,3.8266149l0,0v9.5669861
			c0,2.1133823,1.7132342,3.8266153,3.8266149,3.8266153l0,0h17.2202148l4.7830429,4.783041v-4.783041
			c2.1133823,0,3.8266144-1.713233,3.8266144-3.8266153l0,0V3.8266149C30.4712124,1.7132324,28.7579803,0,26.644598,0L26.644598,0z"
			/>
		<path id="Path_972" fill="#353E46" d="M3.6849124,2.8701875h1.9137604v1.9137604H3.6849124V2.8701875z"/>
		<path id="Path_973" fill="#353E46" d="M3.6849124,6.6968021h1.9137604v1.9137602H3.6849124V6.6968021z"/>
		<path id="Path_974" fill="#353E46" d="M14.2083292,10.5234175h1.9137545v1.9137602h-1.9137545V10.5234175z"/>
		<path id="Path_975" fill="#353E46" d="M18.0349369,10.5234175h1.9137535v1.9137602h-1.9137535V10.5234175z"/>
		<path id="Path_976" fill="#353E46" d="M7.5115275,6.6968021h1.9137597v1.9137602H7.5115275V6.6968021z"/>
		<path id="Path_977" fill="#353E46" d="M21.8615589,6.6968021h1.9137535v1.9137602h-1.9137535V6.6968021z"/>
		<path id="Path_978" fill="#353E46" d="M25.6881676,6.6968021h1.9137535v1.9137602h-1.9137535V6.6968021z"/>
		<path id="Path_979" fill="#353E46" d="M17.0776043,2.8701875h1.9137535v1.9137604h-1.9137535V2.8701875z"/>
		<path id="Path_984" fill="#353E46" d="M7.5115275,2.8701875h7.6532292v1.9137604H7.5115275V2.8701875z"/>
		<path id="Path_985" fill="#353E46" d="M11.3381424,6.6968021h8.6123753v1.9137602h-8.6123753V6.6968021z"/>
		<path id="Path_986" fill="#353E46" d="M3.6849124,10.5234175h8.6123743v1.9137602H3.6849124V10.5234175z"/>
		<path id="Path_987" fill="#353E46" d="M20.9042263,2.8701875h6.6967945v1.9137604h-6.6967945V2.8701875z"/>
		<path id="Path_988" fill="#353E46" d="M21.8615589,10.5234175h5.7403755v1.9137602h-5.7403755V10.5234175z"/>
	</g>
</g>
<g id="Group_1569_1_" transform="translate(-306 -302.387)">
	<g id="Group_1568_1_" transform="translate(306 328.998)">
		<path id="Path_960_1_" fill="#FFCC43" d="M46.9018021,17.4335842h-2.5102806
			c-1.6175385,0.0053673-3.0976906-0.9085293-3.8175507-2.3570766l-1.9092255-3.8193731
			c-0.7201843-1.4482422-2.2001343-2.3620005-3.8175468-2.3570757H4.1436257
			c-0.7858229,0.0197535-1.43888-0.6012421-1.4586439-1.3870726c-0.0197632-0.7858305,0.6012511-1.4388909,1.387074-1.4586449
			c0.0238523-0.0006084,0.0477171-0.0006084,0.0715699,0h30.7035694c2.6972008-0.008853,5.1649055,1.5162735,6.3631859,3.9326944
			l1.9092293,3.8175468c0.238472,0.4828024,0.7307129,0.7879887,1.2691917,0.7869091h2.5102806
			c0.7860718,0,1.4233093-0.6372347,1.4233093-1.423315l0,0V7.4767709c0.0198402-0.7858305,0.6729546-1.4067702,1.4587746-1.3869338
			c0.7579155,0.019145,1.3677979,0.6290188,1.3869362,1.3869338v5.6914334
			c0.0000038,2.3577137-1.911293,4.2690325-4.2690048,4.2690325c-0.0000076,0-0.0000114,0-0.0000153,0L46.9018021,17.4335842z"/>
		<path id="Path_964_1_" fill="#FFAA15" d="M54.0156174,3.2050557h-8.5371246L42.6327782-2.486378h14.2330933L54.0156174,3.2050557z
			"/>
		<path id="Path_965_1_" fill="#FFAA15" d="M45.4784927,1.7817408h8.5371246v7.1147208h-8.5371246V1.7817408z"/>
		<path id="Path_980_1_" fill="#353E46" d="M3.5035899,21.7026157h42.7672386v8.5371227H3.5035899V21.7026157z"/>
		<path id="Path_981_1_" fill="#FFD043" d="M3.5035899,21.7026157h42.7672386v4.2690315H3.5035899V21.7026157z"/>
		<path id="Path_982_1_" fill="#FFD043" d="M22.0011559,23.1250191H10.6183167V6.0507727
			c-0.0006781-3.1432946,2.5469084-5.6919594,5.6901913-5.6926513c3.1432858-0.000664,5.6919708,2.5469222,5.6926479,5.6901889
			c0,0.0008297,0,0.0016322,0,0.0024624V23.1250191z"/>
		<circle id="Ellipse_500_1_" fill="#353E46" cx="15.6606369" cy="5.5485144" r="1.2347425"/>
		<path id="Path_983_1_" fill="#FFD243" d="M30.9272099,13.165493h4.3515186v11.3828392h-4.3515186V13.165493z"/>
	</g>
	<g id="Group_1567_1_" transform="translate(315.702 302.387)">
		<path id="Path_958_1_" fill="#FFD243" d="M27.644598,0H5.6413398C3.5279591,0,1.8147249,1.7132324,1.8147249,3.8266149l0,0
			v9.5669861c0,2.1133823,1.7132342,3.8266153,3.8266149,3.8266153l0,0h17.2202148l4.7830429,4.783041v-4.783041
			c2.1133823,0,3.8266144-1.713233,3.8266144-3.8266153l0,0V3.8266149C31.4712124,1.7132324,29.7579803,0,27.644598,0L27.644598,0z"
			/>
		<path id="Path_972_1_" fill="#353E46" d="M4.6849127,2.8701875h1.9137602v1.9137604H4.6849127V2.8701875z"/>
		<path id="Path_973_1_" fill="#353E46" d="M4.6849127,6.6968021h1.9137602v1.9137602H4.6849127V6.6968021z"/>
		<path id="Path_974_1_" fill="#353E46" d="M15.2083292,10.5234175h1.9137545v1.9137602h-1.9137545V10.5234175z"/>
		<path id="Path_975_1_" fill="#353E46" d="M19.0349369,10.5234175h1.9137535v1.9137602h-1.9137535V10.5234175z"/>
		<path id="Path_976_1_" fill="#353E46" d="M8.5115271,6.6968021h1.9137602v1.9137602H8.5115271V6.6968021z"/>
		<path id="Path_977_1_" fill="#353E46" d="M22.8615589,6.6968021h1.9137535v1.9137602h-1.9137535V6.6968021z"/>
		<path id="Path_978_1_" fill="#353E46" d="M26.6881676,6.6968021h1.9137535v1.9137602h-1.9137535V6.6968021z"/>
		<path id="Path_979_1_" fill="#353E46" d="M18.0776043,2.8701875h1.9137535v1.9137604h-1.9137535V2.8701875z"/>
		<path id="Path_984_1_" fill="#353E46" d="M8.5115271,2.8701875h7.6532297v1.9137604H8.5115271V2.8701875z"/>
		<path id="Path_985_1_" fill="#353E46" d="M12.3381424,6.6968021h8.6123753v1.9137602h-8.6123753V6.6968021z"/>
		<path id="Path_986_1_" fill="#353E46" d="M4.6849127,10.5234175h8.6123743v1.9137602H4.6849127V10.5234175z"/>
		<path id="Path_987_1_" fill="#353E46" d="M21.9042263,2.8701875h6.6967945v1.9137604h-6.6967945V2.8701875z"/>
		<path id="Path_988_1_" fill="#353E46" d="M22.8615589,10.5234175h5.7403755v1.9137602h-5.7403755V10.5234175z"/>
	</g>
</g>
<g id="Group_1569_2_" transform="translate(-306 -302.387)">
	<g id="Group_1568_2_" transform="translate(306 328.998)">
		<path id="Path_960_2_" fill="#FFCC43" d="M45.9018021,17.4335842h-2.5102806
			c-1.6175385,0.0053673-3.0976906-0.9085293-3.8175507-2.3570766l-1.9092255-3.8193731
			c-0.7201843-1.4482422-2.2001343-2.3620005-3.8175468-2.3570757H3.1436255
			C2.3578029,8.9198122,1.7047458,8.2988167,1.6849817,7.5129862C1.6652186,6.7271557,2.2862329,6.0740952,3.0720556,6.0543413
			c0.0238526-0.0006084,0.0477173-0.0006084,0.0715699,0h30.7035694c2.6972008-0.008853,5.1649055,1.5162735,6.3631859,3.9326944
			l1.9092293,3.8175468c0.238472,0.4828024,0.7307129,0.7879887,1.2691917,0.7869091h2.5102806
			c0.7860718,0,1.4233093-0.6372347,1.4233093-1.423315l0,0V7.4767709c0.0198402-0.7858305,0.6729546-1.4067702,1.4587746-1.3869338
			c0.7579155,0.019145,1.3677979,0.6290188,1.3869362,1.3869338v5.6914334
			c0.0000038,2.3577137-1.911293,4.2690325-4.2690048,4.2690325c-0.0000076,0-0.0000114,0-0.0000153,0L45.9018021,17.4335842z"/>
		<path id="Path_964_2_" fill="#FFAA15" d="M53.0156174,3.2050557h-8.5371246L41.6327782-2.486378h14.2330933L53.0156174,3.2050557z
			"/>
		<path id="Path_965_2_" fill="#FFAA15" d="M44.4784927,1.7817408h8.5371246v7.1147208h-8.5371246V1.7817408z"/>
		<path id="Path_980_2_" fill="#353E46" d="M2.5035899,21.7026157h42.7672386v8.5371227H2.5035899V21.7026157z"/>
		<path id="Path_981_2_" fill="#FFD043" d="M2.5035899,21.7026157h42.7672386v4.2690315H2.5035899V21.7026157z"/>
		<path id="Path_982_2_" fill="#FFD043" d="M21.0011559,23.1250191H9.6183167V6.0507727
			c-0.0006781-3.1432946,2.5469084-5.6919594,5.6901922-5.6926513c3.1432848-0.000664,5.6919699,2.5469222,5.692647,5.6901889
			c0,0.0008297,0,0.0016322,0,0.0024624V23.1250191z"/>
		<circle id="Ellipse_500_2_" fill="#353E46" cx="14.6606369" cy="5.5485144" r="1.2347425"/>
		<path id="Path_983_2_" fill="#FFD243" d="M29.9272099,13.165493h4.3515186v11.3828392h-4.3515186V13.165493z"/>
	</g>
	<g id="Group_1567_2_" transform="translate(315.702 302.387)">
		<path id="Path_958_2_" fill="#FFD243" d="M26.644598,0H4.6413398C2.5279591,0,0.814725,1.7132324,0.814725,3.8266149l0,0
			v9.5669861c0,2.1133823,1.7132342,3.8266153,3.8266149,3.8266153l0,0h17.2202148l4.7830429,4.783041v-4.783041
			c2.1133823,0,3.8266144-1.713233,3.8266144-3.8266153l0,0V3.8266149C30.4712124,1.7132324,28.7579803,0,26.644598,0L26.644598,0z"
			/>
		<path id="Path_972_2_" fill="#353E46" d="M3.6849124,2.8701875h1.9137604v1.9137604H3.6849124V2.8701875z"/>
		<path id="Path_973_2_" fill="#353E46" d="M3.6849124,6.6968021h1.9137604v1.9137602H3.6849124V6.6968021z"/>
		<path id="Path_974_2_" fill="#353E46" d="M14.2083292,10.5234175h1.9137545v1.9137602h-1.9137545V10.5234175z"/>
		<path id="Path_975_2_" fill="#353E46" d="M18.0349369,10.5234175h1.9137535v1.9137602h-1.9137535V10.5234175z"/>
		<path id="Path_976_2_" fill="#353E46" d="M7.5115275,6.6968021h1.9137597v1.9137602H7.5115275V6.6968021z"/>
		<path id="Path_977_2_" fill="#353E46" d="M21.8615589,6.6968021h1.9137535v1.9137602h-1.9137535V6.6968021z"/>
		<path id="Path_978_2_" fill="#353E46" d="M25.6881676,6.6968021h1.9137535v1.9137602h-1.9137535V6.6968021z"/>
		<path id="Path_979_2_" fill="#353E46" d="M17.0776043,2.8701875h1.9137535v1.9137604h-1.9137535V2.8701875z"/>
		<path id="Path_984_2_" fill="#353E46" d="M7.5115275,2.8701875h7.6532292v1.9137604H7.5115275V2.8701875z"/>
		<path id="Path_985_2_" fill="#353E46" d="M11.3381424,6.6968021h8.6123753v1.9137602h-8.6123753V6.6968021z"/>
		<path id="Path_986_2_" fill="#353E46" d="M3.6849124,10.5234175h8.6123743v1.9137602H3.6849124V10.5234175z"/>
		<path id="Path_987_2_" fill="#353E46" d="M20.9042263,2.8701875h6.6967945v1.9137604h-6.6967945V2.8701875z"/>
		<path id="Path_988_2_" fill="#353E46" d="M21.8615589,10.5234175h5.7403755v1.9137602h-5.7403755V10.5234175z"/>
	</g>
</g>
</svg>
