<svg xmlns="http://www.w3.org/2000/svg" viewBox="0 0 57.03 57.03"><title>Untitled-1</title><path d="M28.51,1.59A26.93,26.93,0,1,0,55.44,28.51,26.92,26.92,0,0,0,28.51,1.59Zm0,43.38A16.46,16.46,0,1,1,45,28.51,16.44,16.44,0,0,1,28.51,45Z" fill="#ffca43"/><path d="M28.51,1.59c-.56,0-1.11,0-1.67,0a26.93,26.93,0,0,1,0,53.75c.56,0,1.11,0,1.67,0a26.93,26.93,0,1,0,0-53.85Z" fill="#ffaa15"/><path d="M30.9,13H26.13a1,1,0,0,1-1-1V1.85a1,1,0,0,1,1-1H30.9a1,1,0,0,1,1,1V11.94A1,1,0,0,1,30.9,13Z" fill="#fff3ef"/><path d="M30.9.84H27.55a1,1,0,0,1,1,1V11.94a1,1,0,0,1-1,1H30.9a1,1,0,0,0,1-1V1.85A1,1,0,0,0,30.9.84Z" fill="#d9e7ec"/><path d="M44.08,30.9V26.13a1,1,0,0,1,1-1H55.17a1,1,0,0,1,1,1h0V30.9a1,1,0,0,1-1,1H45.1a1,1,0,0,1-1-1Z" fill="#fff3ef"/><path d="M55.18,25.11H51.83a1,1,0,0,1,1,1h0V30.9a1,1,0,0,1-1,1h3.35a1,1,0,0,0,1-1h0V26.13a1,1,0,0,0-1-1Z" fill="#d9e7ec"/><path d="M26.13,44.08H30.9a1,1,0,0,1,1,1h0V55.17a1,1,0,0,1-1,1H26.13a1,1,0,0,1-1-1h0V45.1a1,1,0,0,1,1-1Z" fill="#fff3ef"/><path d="M30.9,44.08H27.55a1,1,0,0,1,1,1h0V55.17a1,1,0,0,1-1,1H30.9a1,1,0,0,0,1-1h0V45.1A1,1,0,0,0,30.9,44.08Z" fill="#d9e7ec"/><path d="M13,26.13V30.9a1,1,0,0,1-1,1H1.85a1,1,0,0,1-1-1V26.13a1,1,0,0,1,1-1H11.94A1,1,0,0,1,13,26.13Z" fill="#fff3ef"/><path d="M11.93,25.11H8.59a1,1,0,0,1,1,1V30.9a1,1,0,0,1-1,1h3.34a1,1,0,0,0,1-1V26.13a1,1,0,0,0-1-1Z" fill="#d9e7ec"/><path d="M56,24.47a27.27,27.27,0,0,0-1.33-5.34.61.61,0,0,0,.11-.29l.58-3.33A12,12,0,0,0,51.85,4.75a2.09,2.09,0,0,0-.22-.2,11.94,11.94,0,0,0-10-2.91L38,2.18a.79.79,0,0,0-.33.13,26.79,26.79,0,0,0-5.14-1.26A1.85,1.85,0,0,0,30.9,0H26.13a1.83,1.83,0,0,0-1.66,1.05,27.6,27.6,0,0,0-5.09,1.24l-3.94-.65a11.91,11.91,0,0,0-10,2.9c-.29.26-.57.54-.84.83a11.93,11.93,0,0,0-2.9,10l.61,3.7a.64.64,0,0,0,.06.18,27.14,27.14,0,0,0-1.28,5.17,1.86,1.86,0,0,0-1,1.67V30.9a1.86,1.86,0,0,0,1.05,1.67,27.36,27.36,0,0,0,1.23,5,1.17,1.17,0,0,0-.09.24l-.5,2.9A12,12,0,0,0,5.18,51.53l.21.2a11.85,11.85,0,0,0,8,3.07,12.54,12.54,0,0,0,2-.17L18,54.21A27.54,27.54,0,0,0,24.46,56,1.86,1.86,0,0,0,26.13,57H30.9A1.86,1.86,0,0,0,32.57,56a27.54,27.54,0,0,0,6.48-1.77l2.55.42a12.57,12.57,0,0,0,2,.17,11.84,11.84,0,0,0,8-3.07c.21-.2.43-.41.63-.62a12,12,0,0,0,3.1-10.26l-.53-3.2a.83.83,0,0,0,0-.15A28.79,28.79,0,0,0,56,32.57a1.87,1.87,0,0,0,1-1.67V26.13A1.86,1.86,0,0,0,56,24.46ZM46.92,47a25.85,25.85,0,0,1-8.2,5.53.88.88,0,0,0-.2.09,26.12,26.12,0,0,1-5.76,1.63v-9A17.28,17.28,0,0,0,45.29,32.75h9A26,26,0,0,1,46.93,47ZM18.51,52.63a.72.72,0,0,0-.2-.09A26.16,26.16,0,0,1,2.77,32.75h9A17.31,17.31,0,0,0,24.28,45.28v9A26.36,26.36,0,0,1,18.51,52.63ZM11.93,26a.19.19,0,0,1,.19.18h0V30.9a.19.19,0,0,1-.19.18H1.85a.18.18,0,0,1-.18-.18h0V26.13A.18.18,0,0,1,1.85,26H11.93Zm13,17.77A15.71,15.71,0,0,1,13.31,32.13a1.83,1.83,0,0,0,.48-1.23V26.13a1.83,1.83,0,0,0-.48-1.23,15.69,15.69,0,0,1,3.28-6.48.83.83,0,1,0-1.27-1.08h0a17.23,17.23,0,0,0-3.57,6.94h-9A26.1,26.1,0,0,1,24.28,2.77v9a17.21,17.21,0,0,0-6.16,2.95A.83.83,0,0,0,18,15.86a.82.82,0,0,0,1.16.17h0a15.6,15.6,0,0,1,5.78-2.72,1.83,1.83,0,0,0,1.23.48H30.9a1.83,1.83,0,0,0,1.23-.48A15.65,15.65,0,0,1,43.72,24.9a1.83,1.83,0,0,0-.48,1.23V30.9a1.83,1.83,0,0,0,.48,1.23A15.65,15.65,0,0,1,32.13,43.72a1.83,1.83,0,0,0-1.23-.48H26.13A1.83,1.83,0,0,0,24.9,43.72ZM55.18,26a.18.18,0,0,1,.18.18V30.9a.18.18,0,0,1-.18.18H45.1a.18.18,0,0,1-.18-.18V26.13A.18.18,0,0,1,45.1,26ZM41.86,3.29h0a10.39,10.39,0,0,1,8.64,2.49L50.7,6a10.31,10.31,0,0,1,3,9.27l-.2,1.15A27.57,27.57,0,0,0,49.21,10,.84.84,0,1,0,48,11.13h0a26,26,0,0,1,6.3,13.15h-9A17.31,17.31,0,0,0,32.75,11.75v-9A25.88,25.88,0,0,1,45.67,8.86a.84.84,0,0,0,1.18-.08.83.83,0,0,0-.08-1.18,27.5,27.5,0,0,0-6.22-4.11ZM26,1.85a.18.18,0,0,1,.18-.18H30.9a.18.18,0,0,1,.18.18V11.93a.19.19,0,0,1-.18.19H26.13a.19.19,0,0,1-.18-.19ZM3.31,15.14A10.39,10.39,0,0,1,5.8,6.5q.35-.37.72-.72a10.28,10.28,0,0,1,8.64-2.49l1.3.21A28,28,0,0,0,3.52,16.42ZM15.16,53A10.28,10.28,0,0,1,6.52,50.5l-.19-.18a10.28,10.28,0,0,1-3-9.27l.1-.58A28.1,28.1,0,0,0,15.32,53Zm15.92,2.19a.18.18,0,0,1-.18.18H26.13a.18.18,0,0,1-.18-.18V45.1a.18.18,0,0,1,.18-.18H30.9a.18.18,0,0,1,.18.18Zm22.64-14A10.38,10.38,0,0,1,51.06,50a7,7,0,0,1-.55.54A10.39,10.39,0,0,1,41.87,53l-.17,0A28,28,0,0,0,53.6,40.44Z" fill="#353e46"/></svg>