<?xml version="1.0" encoding="utf-8"?>
<!-- Generator: Adobe Illustrator 23.0.4, SVG Export Plug-In . SVG Version: 6.00 Build 0)  -->
<svg version="1.2" baseProfile="tiny" id="Layer_1" xmlns="http://www.w3.org/2000/svg" xmlns:xlink="http://www.w3.org/1999/xlink"
	 x="0px" y="0px" viewBox="0 0 57.0299988 57.0299988" xml:space="preserve">
<g id="lightning_1_" transform="translate(-95.527 0)">
	<path id="Path_1018" fill="#FFCA43" d="M119.4278641,53.4198036l19.7648849-34.0325012
		c0.2967529-0.5114803,0.1226959-1.1666889-0.3887939-1.4634495c-0.2057648-0.1193829-0.4454193-0.1668434-0.6811523-0.1348896
		l-13.1474762,1.7868328l3.1410522-16.4917107c0.05513-0.2904825-0.1356506-0.5706596-0.4261322-0.6257951
		c-0.1996613-0.0378959-0.4035721,0.040529-0.5263824,0.202455l-19.4334641,25.6514568
		c-0.3569336,0.4714603-0.2640915,1.1430111,0.2073669,1.4999447c0.2167816,0.1641197,0.4878769,0.239624,0.7582855,0.2111816
		l14.494751-1.5257206l-4.7517548,24.5513916c-0.0567627,0.2901726,0.1324539,0.5714073,0.4226227,0.6281662
		C119.0859909,53.7210464,119.3134308,53.6176682,119.4278641,53.4198036z"/>
	<path id="Path_1019" fill="#FFAA15" d="M113.8078079,26.4944668c-0.2441483,0.0191822-0.4576187-0.1631851-0.476799-0.4073296
		c-0.007431-0.0945244,0.0156403-0.1889439,0.0658188-0.2693958l14.5295105-23.2473793
		c-0.223465-0.1870205-0.5562363-0.1574719-0.7432556,0.0659976c-0.0066376,0.0079391-0.0130539,0.0160711-0.0192184,0.0243874
		l-19.4334641,25.6514568c-0.3569336,0.4714603-0.2640915,1.1430111,0.2073669,1.4999447
		c0.2167816,0.1641197,0.4878769,0.239624,0.7582855,0.2111816l14.494751-1.5257206l-4.7517548,24.5513916
		c-0.0580597,0.2816391,0.1231918,0.5570221,0.4048233,0.6150818c0.005127,0.0010567,0.0102768,0.0020332,0.0154266,0.0029335
		l8.142334-25.7657871c0.2975464-0.9395733-0.2229156-1.9424553-1.1624908-2.2400036
		c-0.2200165-0.0696754-0.4514542-0.0960121-0.6815033-0.0775509L113.8078079,26.4944668z"/>
	<path id="Path_1020" fill="#353E46" d="M140.9865265,17.0288067c-0.1773987-0.2647266-0.4899139-0.4055424-0.8057404-0.3630848
		l-14.1672058,1.92589l1.8223648-9.5676346c0.0676498-0.4562187-0.2473373-0.8809061-0.7035599-0.948555
		c-0.4312515-0.0639544-0.8391266,0.2145948-0.9364929,0.6395464l-2.0394516,10.707099
		c-0.0860825,0.4531002,0.211441,0.8901997,0.6645432,0.9762859c0.0883255,0.0167847,0.1787949,0.0191898,0.2678909,0.0071316
		l13.6248856-1.854044l-19.1174927,32.9177628l3.3789902-17.4589005c0.0772934-0.454689-0.2286606-0.8859329-0.683342-0.9632187
		c-0.4400024-0.0747948-0.8610306,0.2096062-0.9559326,0.64571l-4.3176117,22.305687
		c-0.0918808,0.4519653,0.2000198,0.8928375,0.6519775,0.9847221c0.3543854,0.0720558,0.7148743-0.0921936,0.8930588-0.4068756
		l22.4547806-38.6645241C141.1771393,17.6355839,141.164856,17.2929344,140.9865265,17.0288067z"/>
	<path id="Path_1021" fill="#353E46" d="M122.0258484,30.1237583c-0.0979996,0.450676,0.1878891,0.8954678,0.6385651,0.993475
		c0.450676,0.0980053,0.8954697-0.187891,0.9934769-0.638567c0.0027008-0.0124111,0.0051117-0.0248833,0.0072403-0.037405
		l0.345314-1.7852879c0.0874176-0.4528522-0.2088318-0.8908176-0.6616821-0.9782295
		c-0.08078-0.0155945-0.1634293-0.0191631-0.2452545-0.0105934l-15.0362854,1.5828896l18.990036-25.0666618l-0.1830902,0.9594669
		c-0.1030045,0.4495587,0.1779327,0.8975015,0.6274948,1.0005083c0.4495544,0.1030073,0.8974915-0.1779289,1.0005035-0.6274872
		c0.0048523-0.021173,0.0088654-0.0425272,0.0120544-0.064014l0.8497772-4.4612904
		c0.0858459-0.453148-0.2119141-0.8900919-0.6650543-0.9759415c-0.3111877-0.0589549-0.628952,0.0632065-0.8204956,0.3154386
		l-22.3056793,29.4483814c-0.2780838,0.3679466-0.2052307,0.891655,0.1627121,1.169733
		c0.1686707,0.1274776,0.3794174,0.1862316,0.5897141,0.1644058l15.8312073-1.6663227L122.0258484,30.1237583z"/>
</g>
</svg>
