<svg xmlns="http://www.w3.org/2000/svg" width="46.243" height="73.771" viewBox="0 0 46.243 73.771">
  <g id="lightning_1_" data-name="lightning (1)" transform="translate(-95.527 0)">
    <path id="Path_1018" data-name="Path 1018" d="M129.885,87.929,155.47,43.875a1.386,1.386,0,0,0-1.385-2.069l-17.019,2.313,4.066-21.348a.693.693,0,0,0-1.233-.548L114.743,55.428a1.386,1.386,0,0,0,1.25,2.215l18.763-1.975-6.151,31.781A.693.693,0,0,0,129.885,87.929Z" transform="translate(-16.204 -18.783)" fill="#ffca43"/>
    <path id="Path_1019" data-name="Path 1019" d="M122.61,53.089a.574.574,0,0,1-.532-.876L140.886,22.12a.683.683,0,0,0-.987.117L114.743,55.442a1.386,1.386,0,0,0,1.25,2.215l18.763-1.975-6.151,31.781a.674.674,0,0,0,.544.8l10.54-33.353a2.31,2.31,0,0,0-2.387-3Z" transform="translate(-16.204 -18.797)" fill="#ffaa15"/>
    <path id="Path_1020" data-name="Path 1020" d="M230.782,83.79a1.082,1.082,0,0,0-1.043-.47L211.4,85.813l2.359-12.385a1.081,1.081,0,0,0-2.123-.4l-2.64,13.86a1.081,1.081,0,0,0,1.207,1.273l17.637-2.4-24.747,42.611,4.374-22.6a1.081,1.081,0,0,0-2.122-.411l-5.589,28.874a1.081,1.081,0,0,0,2,.748l29.067-50.05A1.08,1.08,0,0,0,230.782,83.79Z" transform="translate(-89.194 -61.751)" fill="#353e46"/>
    <path id="Path_1021" data-name="Path 1021" d="M117.044,38.99a1.081,1.081,0,1,0,2.122.411l.447-2.311a1.081,1.081,0,0,0-1.174-1.28L98.975,37.859,123.557,5.411l-.237,1.242a1.081,1.081,0,1,0,2.123.4l1.1-5.775a1.081,1.081,0,0,0-1.923-.855L95.746,38.543a1.081,1.081,0,0,0,.974,1.727l20.493-2.157Z" transform="translate(0 0)" fill="#353e46"/>
  </g>
</svg>
