<svg xmlns="http://www.w3.org/2000/svg" width="68.619" height="73.631" viewBox="0 0 68.619 73.631">
  <g id="torch_1_" data-name="torch (1)" transform="translate(-56.173 32.46) rotate(-45)">
    <path id="Path_1045" data-name="Path 1045" d="M222.638,120.046l-.038-.038,5.215-5.214a1.316,1.316,0,0,1,1.862,0L245.186,130.3a1.316,1.316,0,0,1,0,1.862l-5.214,5.215Z" transform="translate(-162.991 -69.064)" fill="#ffaa15"/>
    <path id="Path_1046" data-name="Path 1046" d="M183.446,174.554l.016.043-12.745,4.582L166.7,183.2l-9.2-9.2,4.022-4.022,4.59-12.764Z" transform="translate(-106.465 -106.238)" fill="#ffca43"/>
    <path id="Path_1047" data-name="Path 1047" d="M103,293.875l-9.661,9.661-9.2-9.2L93.8,284.68Zm-6.069-1.152a1.975,1.975,0,0,0-3.372-1.4l-2.793,2.793a1.975,1.975,0,1,0,2.794,2.794l2.793-2.794a1.969,1.969,0,0,0,.578-1.4Z" transform="translate(-42.766 -216.911)" fill="#ffac14"/>
    <path id="Path_1048" data-name="Path 1048" d="M136.2,331.334a1.975,1.975,0,0,1,0,2.793l-2.793,2.793a1.975,1.975,0,1,1-2.794-2.794l2.794-2.793A1.974,1.974,0,0,1,136.2,331.334Z" transform="translate(-82.617 -256.918)" fill="#d9e7ec"/>
    <path id="Path_1049" data-name="Path 1049" d="M55.766,367.235l-4.927,4.927a2.635,2.635,0,0,1-3.726,0l-5.469-5.469a2.635,2.635,0,0,1,0-3.726l4.927-4.927Z" transform="translate(-5.197 -280.61)" fill="#ffcc43"/>
    <g id="Group_1563" data-name="Group 1563" transform="translate(34.887 34.869)">
      <path id="Path_1050" data-name="Path 1050" d="M35.888,150.5l5.469,5.469a3.43,3.43,0,0,0,4.843,0l18.485-18.485,12.588-4.526.042-.016a.788.788,0,0,0,.451-.437l4.985-4.986a2.106,2.106,0,0,0,0-2.98L67.245,109.027a2.093,2.093,0,0,0-1.49-.618h0a2.09,2.09,0,0,0-1.488.618l-5.215,5.214a.79.79,0,0,0-.231.559v.006l-4.445,12.363L35.888,145.654A3.43,3.43,0,0,0,35.888,150.5Zm15.147-17.755,8.078,8.078-8.544,8.544-8.078-8.078Zm14.348-22.6a.525.525,0,0,1,.744,0l15.509,15.509a.525.525,0,0,1,0,.745l-4.655,4.656L60.726,114.8ZM55.616,128.16a.79.79,0,0,0,.185-.291l4.168-11.592,15.608,15.608-11.592,4.168a.79.79,0,0,0-.291.185L60.23,139.7l-8.078-8.078Zm-18.61,18.61,4.368-4.368,8.078,8.078-4.368,4.368a1.848,1.848,0,0,1-2.609,0l-5.469-5.469a1.847,1.847,0,0,1,0-2.609Z" transform="translate(-34.887 -98.724)" fill="#353e46"/>
      <path id="Path_1051" data-name="Path 1051" d="M379.315,82.013a.79.79,0,0,0-1.117,0l-6.106,6.106a.79.79,0,1,0,1.117,1.117l6.105-6.106A.79.79,0,0,0,379.315,82.013Z" transform="translate(-327.481 -75.603)" fill="#353e46"/>
      <path id="Path_1052" data-name="Path 1052" d="M415.189,149.131a.788.788,0,0,0,.374-.094l6.681-3.592a.79.79,0,1,0-.748-1.392l-6.681,3.591a.79.79,0,0,0,.375,1.486Z" transform="translate(-364.417 -129.592)" fill="#353e46"/>
      <path id="Path_1053" data-name="Path 1053" d="M332.454,35.285l-3.592,6.681a.79.79,0,1,0,1.392.748l3.591-6.681a.79.79,0,1,0-1.392-.748Z" transform="translate(-290.064 -34.869)" fill="#353e46"/>
      <path id="Path_1054" data-name="Path 1054" d="M124.844,332.271a2.768,2.768,0,0,0,3.911,0l2.793-2.793a2.766,2.766,0,1,0-3.912-3.911l-2.793,2.793a2.766,2.766,0,0,0,0,3.911Zm1.117-2.793,2.793-2.793a1.185,1.185,0,1,1,1.676,1.676l-2.794,2.793a1.185,1.185,0,1,1-1.676-1.676Z" transform="translate(-112.293 -286.578)" fill="#353e46"/>
    </g>
  </g>
</svg>
