<?xml version="1.0" encoding="utf-8"?>
<!-- Generator: Adobe Illustrator 23.0.4, SVG Export Plug-In . SVG Version: 6.00 Build 0)  -->
<svg version="1.2" baseProfile="tiny" id="Layer_1" xmlns="http://www.w3.org/2000/svg" xmlns:xlink="http://www.w3.org/1999/xlink"
	 x="0px" y="0px" viewBox="0 0 57.0299988 57.0299988" xml:space="preserve">
<g id="torch_1_" transform="translate(-56.173 32.46) rotate(-45)">
	<path id="Path_1045" fill="#FFAA15" d="M59.9770241,44.8890305l-0.0318375-0.0318451l4.369915-4.3690796
		c0.4304428-0.4308548,1.1286621-0.4311943,1.5595093-0.0007477c0.0002594,0.000248,0.0005035,0.0004997,0.0007553,0.0007477
		L78.87117,53.4813919c0.4308548,0.4304466,0.4311829,1.1286583,0.0007553,1.5595131
		c-0.0002594,0.0002556-0.0005035,0.0004959-0.0007553,0.0007553l-4.3690872,4.369915L59.9770241,44.8890305z"/>
	<path id="Path_1046" fill="#FFCA43" d="M74.5020828,59.414093l0.0134125,0.0360336l-10.6796951,3.8394928l-3.3660622,3.3694
		l-7.709156-7.7091522l3.3702469-3.3702469l3.8461952-10.6956215L74.5020828,59.414093z"/>
	<path id="Path_1047" fill="#FFAC14" d="M60.4688988,66.6607056l-8.0954552,8.095459l-7.709156-7.7091675l8.095459-8.0912666
		L60.4688988,66.6607056z M55.3833694,65.6953735c0.0018158-0.9140015-0.7376556-1.6564178-1.6516609-1.6582336
		c-0.4402542-0.0008926-0.8627129,0.1736908-1.1739159,0.4851074l-2.3403969,2.3404007
		c-0.6465187,0.6465149-0.6465187,1.694725-0.0000076,2.3412399c0.6465187,0.6465225,1.694725,0.6465225,2.3412437,0l0,0
		l2.3404007-2.3412399c0.3114052-0.3108292,0.4857674-0.7331543,0.4843369-1.1731262V65.6953735z"/>
	<path id="Path_1048" fill="#D9E7EC" d="M54.8956795,64.5256119c0.6462631,0.646286,0.6462631,1.6941147,0,2.3404007
		l-2.3403969,2.3404007c-0.6465187,0.6465149-1.694725,0.6465149-2.3412437,0c-0.6465187-0.6465225-0.6465187-1.694725,0-2.3412476
		l2.3412437-2.3404007c0.6458893-0.6460533,1.6932297-0.646183,2.3392715-0.0002747
		C54.894928,64.5248718,54.8953094,64.5252304,54.8956795,64.5256119z"/>
	<path id="Path_1049" fill="#FFCC43" d="M52.3700943,74.7561569l-4.1285934,4.1285858
		c-0.862236,0.8620148-2.2599716,0.8620148-3.1222076,0l-4.5827599-4.582756c-0.8620338-0.8622437-0.8620338-2.2599716,0-3.1222153
		l4.1285934-4.1285934L52.3700943,74.7561569z"/>
	<g id="Group_1563" transform="translate(34.887 34.869)">
		<path id="Path_1050" fill="#353E46" d="M5.1811209,39.9039154l4.5827608,4.5827522
			c1.1216888,1.1181107,2.936511,1.1181107,4.0581999,0l15.4895391-15.4895401l10.5481358-3.792572l0.0351944-0.0134125
			c0.1712685-0.0644302,0.3081207-0.1970348,0.3779144-0.3661823l4.1771889-4.1780281
			c0.6895561-0.6887836,0.6901817-1.8061428,0.0014-2.4956989c-0.0004654-0.0004673-0.0009346-0.0009346-0.0014-0.0014
			L31.4567814,5.1515346c-0.3302784-0.3325033-0.7798901-0.5189829-1.2485466-0.5178514l0,0
			c-0.468132-0.0009651-0.9171619,0.1855268-1.2468719,0.5178514L24.591444,9.5206127
			c-0.1241055,0.1242752-0.1937389,0.2927837-0.1935673,0.4684143v0.0050249L20.6731815,20.353651L5.1811209,35.8432045
			C4.0613432,36.9651871,4.0613432,38.7819328,5.1811209,39.9039154z M17.873579,25.0260735l6.7689743,6.7689781
			l-7.1594601,7.1594658l-6.7689753-6.7689781L17.873579,25.0260735z M29.8965092,6.0883613
			c0.171442-0.1721587,0.4499874-0.1727343,0.6221466-0.0012913c0.0004292,0.0004282,0.000864,0.0008569,0.0012913,0.0012913
			l12.9958,12.9957981c0.17239,0.1712132,0.1733398,0.4497528,0.0021362,0.6221409
			c-0.0007095,0.0007172-0.0014191,0.0014267-0.0021362,0.0021362l-3.9006653,3.9015083L25.9941711,9.9890327L29.8965092,6.0883613z
			 M21.7122364,21.1840706c0.0690002-0.0688782,0.1219349-0.1521416,0.1550236-0.2438431l3.4925823-9.713542l13.0787563,13.0787497
			l-9.7135391,3.4925823c-0.0917053,0.0330906-0.1749687,0.0860252-0.243845,0.1550198l-2.902668,2.9009933l-6.7689762-6.7689781
			L21.7122364,21.1840706z M6.1179509,36.7783585l3.6601739-3.6601715l6.7689753,6.7689781l-3.6601744,3.6601715
			c-0.604311,0.602253-1.5819063,0.602253-2.1862173,0l-4.5827603-4.582756c-0.6027064-0.6041183-0.6027064-1.5820923,0-2.1862106
			L6.1179509,36.7783585z"/>
		<path id="Path_1051" fill="#353E46" d="M47.7767448,1.8893894c-0.2585106-0.258395-0.6774864-0.258395-0.935997,0
			l-5.1165237,5.1165366c-0.2637024,0.253242-0.2721672,0.6723013-0.0189247,0.9359961
			c0.2532425,0.2636881,0.6723213,0.2721596,0.935997,0.0189109c0.006443-0.006176,0.0127335-0.012486,0.0189247-0.0189171
			l5.1157036-5.1165371C48.0345383,2.5671055,48.0348969,2.1481104,47.7767448,1.8893894z"/>
		<path id="Path_1052" fill="#353E46" d="M46.8868294,12.8908587c0.1093712,0.000102,0.2170563-0.0269537,0.3133888-0.078763
			l5.5983543-3.0099192c0.3221092-0.1730728,0.4429131-0.5745068,0.2698135-0.8966017
			c-0.1730728-0.3220959-0.5744781-0.4428988-0.8965874-0.2698259l-5.5983582,3.0090885
			c-0.3221092,0.1729708-0.4429893,0.5743017-0.2700157,0.8963966c0.115509,0.2151146,0.3400841,0.3491774,0.5842476,0.348793
			L46.8868294,12.8908587z"/>
		<path id="Path_1053" fill="#353E46" d="M39.8631248-3.1332972l-3.0099297,5.5983567
			c-0.1730728,0.3220985-0.0522728,0.7235255,0.2698097,0.8966081c0.3221092,0.1730828,0.7235451,0.0522795,0.8966179-0.2698193
			l3.0090866-5.5983562c0.1730728-0.3220987,0.052269-0.7235258-0.2698135-0.8966084
			c-0.3221092-0.1730828-0.7235413-0.0522795-0.8966141,0.2698193H39.8631248z"/>
		<path id="Path_1054" fill="#353E46" d="M14.8594685,34.8066444c0.9054623,0.9038277,2.371769,0.9038277,3.2772331,0
			l2.3403988-2.3403969c0.9143238-0.895874,0.9292698-2.3633385,0.0333977-3.2776489
			c-0.895874-0.9143353-2.3633385-0.9292965-3.2776623-0.0333977c-0.011385,0.0111504-0.0226574,0.0224266-0.0338058,0.0338078
			l-2.3403997,2.3403988c-0.9047527,0.9050789-0.9047527,2.3721581,0,3.2772369H14.8594685z M15.7954578,32.4662476
			l2.3403988-2.3403988c0.3878155-0.387804,1.0165863-0.387804,1.4044037,0c0.3878155,0.3878021,0.3878155,1.0165997,0,1.4044018
			l-2.3412361,2.3404007c-0.3878174,0.3878288-1.0165882,0.3878288-1.4044104,0
			c-0.3878164-0.3878059-0.3878164-1.0165749,0-1.4044037H15.7954578z"/>
	</g>
</g>
</svg>
